<svg id="flat" height="512" viewBox="0 0 512 512" width="512" xmlns="http://www.w3.org/2000/svg"><rect fill="#b1712c" height="344" rx="16" width="272" x="216" y="56"/><path d="m248 88h208v280h-208z" fill="#e0edff"/><path d="m280 288h48v48h-48z" fill="#bed3f7"/><path d="m280 200h48v48h-48z" fill="#bed3f7"/><path d="m368 56v-16a16 16 0 0 0 -16-16 16 16 0 0 0 -16 16v16z" fill="#ffb401"/><path d="m440 56-32 48h-112l-32-48z" fill="#ffc431"/><path d="m295.716 284h56.569v16h-56.569z" fill="#f5714f" transform="matrix(.707 -.707 .707 .707 -111.577 314.646)"/><path d="m360 288h16v16h-16z" fill="#bed3f7"/><path d="m392 288h40v16h-40z" fill="#bed3f7"/><path d="m360 320h48v16h-48z" fill="#bed3f7"/><path d="m295.716 196h56.569v16h-56.569z" fill="#f5714f" transform="matrix(.707 -.707 .707 .707 -49.349 288.869)"/><g fill="#bed3f7"><path d="m360 200h16v16h-16z"/><path d="m392 200h40v16h-40z"/><path d="m360 232h48v16h-48z"/><path d="m312 128h16v16h-16z"/><path d="m344 128h48v16h-48z"/></g><path d="m64 264v184l40 16 16-152 16 152 40-16v-184z" fill="#718799"/><path d="m296 172.68a30.60056 30.60056 0 0 1 -7.37012 19.92l-28.81982 33.62a39.46652 39.46652 0 0 1 -54.62012 5.13l-15.48994-12.39-13.7-10.96v56h-112v-120h106.75a31.99554 31.99554 0 0 1 22.62012 9.37l38.62988 38.63 20.01-20.01v-18.35a5.66387 5.66387 0 0 1 9.65991-4l6.34009 6.35 11.99-11.99 7.04 7.04a30.63313 30.63313 0 0 1 8.96 21.64z" fill="#ffceb6"/><path d="m220 180-30.3 38.96-13.7-10.96v56h-112v-120h106.75a31.99554 31.99554 0 0 1 22.62012 9.37z" fill="#548aff"/><path d="m64 144h-8a32 32 0 0 0 -32 32v136a24 24 0 0 0 24 24h16v-24h10.34315a5.65685 5.65685 0 0 0 5.65685-5.65685 5.65684 5.65684 0 0 0 -1.65685-4l-14.34315-14.34315z" fill="#ffceb6"/><path d="m136 464v24h72v-16l-32-24z" fill="#e0edff"/><path d="m104 464v24h-72v-16l32-24z" fill="#e0edff"/><path d="m136 168-8 16 8 40-16 16-16-16 8-40-8-16 16-16z" fill="#f5714f"/><path d="m128 192h-16a8 8 0 0 1 0-16h16a8 8 0 0 1 0 16z" fill="#ef5e3b"/><path d="m72 224h-48v-48a32 32 0 0 1 32-32h16z" fill="#548aff"/><path d="m160.001 192a7.99952 7.99952 0 0 1 -4.999-1.75293l-35.002-28.00195-35.00195 28.002a8.00023 8.00023 0 0 1 -12.99805-6.24712v-40h16v23.355l27.002-21.60207a8.0027 8.0027 0 0 1 9.9961 0l27.0019 21.60207v-23.355h16v40a7.99953 7.99953 0 0 1 -7.999 8z" fill="#4f7ff7"/><path d="m120 152a24 24 0 0 1 -24-24v-8l16-16h32v24a24 24 0 0 1 -24 24z" fill="#ffceb6"/><path d="m144 104 6.63344-13.26688a12.94424 12.94424 0 0 0 1.36656-5.78885 12.94426 12.94426 0 0 0 -12.94426-12.94427h-19.05574a24 24 0 0 0 -24 24v24l16-16z" fill="#b1712c"/></svg>