<svg viewBox="0 0 512 512" xmlns="http://www.w3.org/2000/svg" xmlns:xlink="http://www.w3.org/1999/xlink"><linearGradient id="a" gradientTransform="matrix(1 0 0 -1 0 -19430)" gradientUnits="userSpaceOnUse" x1="0" x2="512" y1="-19686" y2="-19686"><stop offset="0" stop-color="#00f1ff"/><stop offset=".231" stop-color="#00d8ff"/><stop offset=".5138" stop-color="#00c0ff"/><stop offset=".7773" stop-color="#00b2ff"/><stop offset="1" stop-color="#00adff"/></linearGradient><path d="m512 256c0 141.386719-114.613281 256-256 256s-256-114.613281-256-256 114.613281-256 256-256 256 114.613281 256 256zm0 0" fill="url(#a)"/><g fill="#fff"><path d="m178.457031 161.195312c22.523438 0 40.847657-18.324218 40.847657-40.847656 0-22.527344-18.324219-40.851562-40.847657-40.851562-22.523437 0-40.847656 18.324218-40.847656 40.851562 0 22.523438 18.324219 40.847656 40.847656 40.847656zm0-51.695312c5.980469 0 10.847657 4.863281 10.847657 10.847656 0 5.980469-4.867188 10.847656-10.847657 10.847656s-10.847656-4.867187-10.847656-10.847656c0-5.984375 4.867187-10.847656 10.847656-10.847656zm0 0"/><path d="m408.5 311.109375c8.285156 0 15-6.714844 15-15v-47.816406c0-8.285157-6.714844-15-15-15h-113.09375c2.492188-2.679688 4.027344-6.257813 4.027344-10.203125 0-8.28125-6.714844-15-15-15h-47.886719l-46.359375-35.660156c-2.621094-2.015626-5.835938-3.109376-9.144531-3.109376-22.523438 0-40.847657 18.324219-40.847657 40.847657v76.25c0 3.757812.519532 7.390625 1.472657 10.847656h-23.167969v-91.621094c0-8.285156-6.714844-15-15-15s-15 6.714844-15 15v193.855469c0 8.285156 6.714844 15 15 15s15-6.714844 15-15v-72.234375h54.789062c5.980469 0 10.847657 4.867187 10.847657 10.847656v61.386719c0 8.285156 6.714843 15 15 15 8.285156 0 15-6.714844 15-15v-61.386719c0-3.757812-.519531-7.390625-1.472657-10.847656h23.09375c.242188 0 .480469-.023437.71875-.035156v33.5c0 29.648437 24.121094 53.769531 53.769532 53.769531h79.480468c29.652344 0 53.773438-24.121094 53.773438-53.769531 0-8.285157-6.71875-15-15-15-8.285156 0-15 6.714843-15 15 0 13.105469-10.664062 23.769531-23.773438 23.769531h-79.480468c-13.105469 0-23.769532-10.660156-23.769532-23.769531v-97.4375h127.023438v32.816406c0 8.285156 6.714844 15 15 15zm-172.742188-13.84375h-54.714843c-5.980469 0-10.847657-4.867187-10.847657-10.847656v-76.25c0-4.542969 2.804688-8.441407 6.773438-10.054688l45.332031 34.867188c2.621094 2.015625 5.835938 3.109375 9.144531 3.109375h9.058594c-2.492187 2.679687-4.027344 6.257812-4.027344 10.199218v49.011719c-.238281-.011719-.476562-.035156-.71875-.035156zm0 0"/></g></svg>